<svg xmlns="http://www.w3.org/2000/svg" xmlns:xlink="http://www.w3.org/1999/xlink" viewBox="0 0 398.63 459.86"><defs><style>.cls-1,.cls-7{fill:none}.cls-2{clip-path:url(#clip-path)}.cls-3{fill:url(#linear-gradient)}.cls-4{fill:url(#linear-gradient-2)}.cls-5{fill:url(#linear-gradient-3)}.cls-6{fill:url(#linear-gradient-4)}.cls-7{stroke-miterlimit:10;stroke-width:7px;stroke:url(#linear-gradient-5)}</style><clipPath id="clip-path" transform="translate(-55.9 -26.25)"><polygon points="419.22 349.3 255.38 443.53 91.86 348.76 92.17 159.77 256 65.54 419.53 160.3 419.22 349.3" class="cls-1"/></clipPath><linearGradient id="linear-gradient" x1="18.77" x2="257.46" y1="196.58" y2="196.58" gradientUnits="userSpaceOnUse"><stop offset="0" stop-color="#24c6dc"/><stop offset=".13" stop-color="#25c0da"/><stop offset=".3" stop-color="#28b0d3"/><stop offset=".48" stop-color="#2c95c7"/><stop offset=".69" stop-color="#326fb7"/><stop offset=".9" stop-color="#3a40a3"/><stop offset="1" stop-color="#3e2899"/></linearGradient><linearGradient id="linear-gradient-2" x1="18.77" x2="86.13" y1="386.95" y2="386.95" xlink:href="#linear-gradient"/><linearGradient id="linear-gradient-3" x1="161.06" x2="313.36" y1="413.19" y2="413.19" xlink:href="#linear-gradient"/><linearGradient id="linear-gradient-4" x1="121.28" x2="393.65" y1="239.78" y2="239.78" xlink:href="#linear-gradient"/><linearGradient id="linear-gradient-5" x1="0" x2="398.63" y1="229.93" y2="229.93" xlink:href="#linear-gradient"/></defs><title>Untitled-1</title><g id="Layer_3" data-name="Layer 3"><g class="cls-2"><polygon points="18.77 61.13 18.77 332.03 257.46 332.03 257.46 263.21 100.78 263.21 100.78 61.13 18.77 61.13" class="cls-3"/><rect width="67.36" height="62.97" x="18.77" y="355.46" class="cls-4"/><path d="M161.07,381.71s1.46,63,0,63H313.36v-63Z" class="cls-5" transform="translate(-55.9 -26.25)"/><polygon points="282.36 418.43 282.36 230.99 121.28 230.99 121.28 61.13 188.64 61.13 188.64 165.1 269.18 165.1 269.18 61.13 393.65 61.13 393.65 418.43 282.36 418.43" class="cls-6"/></g></g><g id="Layer_4" data-name="Layer 4"><polygon points="394.76 343.2 198.94 455.82 3.5 342.56 3.87 116.67 199.69 4.04 395.13 117.31 394.76 343.2" class="cls-7"/></g></svg>